<svg width="36" height="48" viewBox="0 0 36 48" fill="none" xmlns="http://www.w3.org/2000/svg">
  <path d="M18 0C8.059 0 0 8.059 0 18C0 30 18 48 18 48S36 30 36 18C36 8.059 27.941 0 18 0Z" fill="#8B5CF6"/>
  <path d="M18 0C8.059 0 0 8.059 0 18C0 30 18 48 18 48S36 30 36 18C36 8.059 27.941 0 18 0Z" fill="url(#gradient)" fill-opacity="0.8"/>
  <circle cx="18" cy="18" r="12" fill="white"/>
  <path d="M18 8L11 12V18C11 22.5 14 26.16 18 27C22 26.16 25 22.5 25 18V12L18 8ZM18 18H23C23 21.75 20.67 24.91 18 25.85V18H13V13.3L18 10.8V18Z" fill="#8B5CF6"/>
  <defs>
    <linearGradient id="gradient" x1="18" y1="0" x2="18" y2="48" gradientUnits="userSpaceOnUse">
      <stop stop-color="#A78BFA"/>
      <stop offset="1" stop-color="#8B5CF6"/>
    </linearGradient>
  </defs>
</svg>