<svg width="36" height="48" viewBox="0 0 36 48" fill="none" xmlns="http://www.w3.org/2000/svg">
  <path d="M18 0C8.059 0 0 8.059 0 18C0 30 18 48 18 48S36 30 36 18C36 8.059 27.941 0 18 0Z" fill="#10B981"/>
  <path d="M18 0C8.059 0 0 8.059 0 18C0 30 18 48 18 48S36 30 36 18C36 8.059 27.941 0 18 0Z" fill="url(#gradient)" fill-opacity="0.8"/>
  <circle cx="18" cy="18" r="12" fill="white"/>
  <path d="M18 9L20.47 14.18L26 14.84L21.82 18.76L23 24L18 21.27L13 24L14.18 18.76L10 14.84L15.53 14.18L18 9Z" fill="#10B981"/>
  <defs>
    <linearGradient id="gradient" x1="18" y1="0" x2="18" y2="48" gradientUnits="userSpaceOnUse">
      <stop stop-color="#34D399"/>
      <stop offset="1" stop-color="#10B981"/>
    </linearGradient>
  </defs>
</svg>